<?xml version="1.0" encoding="UTF-8" standalone="no"?>
<!-- Created with Inkscape (http://www.inkscape.org/) -->

<svg
   xmlns:osb="http://www.openswatchbook.org/uri/2009/osb"
   xmlns:dc="http://purl.org/dc/elements/1.1/"
   xmlns:cc="http://creativecommons.org/ns#"
   xmlns:rdf="http://www.w3.org/1999/02/22-rdf-syntax-ns#"
   xmlns:svg="http://www.w3.org/2000/svg"
   xmlns="http://www.w3.org/2000/svg"
   xmlns:sodipodi="http://sodipodi.sourceforge.net/DTD/sodipodi-0.dtd"
   xmlns:inkscape="http://www.inkscape.org/namespaces/inkscape"
   width="500"
   height="500"
   viewBox="0 0 132.29166 132.29167"
   version="1.1"
   id="svg4714"
   inkscape:export-filename="D:\GitHub\Poke\tmp\Stick.png"
   inkscape:export-xdpi="96"
   inkscape:export-ydpi="96"
   inkscape:version="0.92.1 r15371"
   sodipodi:docname="Stick.svg">
  <defs
     id="defs4708">
    <linearGradient
       id="linearGradient6748"
       osb:paint="solid">
      <stop
         style="stop-color:#000000;stop-opacity:1;"
         offset="0"
         id="stop6746" />
    </linearGradient>
  </defs>
  <sodipodi:namedview
     id="base"
     pagecolor="#ffffff"
     bordercolor="#666666"
     borderopacity="1.0"
     inkscape:pageopacity="0.0"
     inkscape:pageshadow="2"
     inkscape:zoom="1.4"
     inkscape:cx="131.72315"
     inkscape:cy="203.59018"
     inkscape:document-units="px"
     inkscape:current-layer="layer1"
     showgrid="true"
     units="px"
     borderlayer="false"
     inkscape:showpageshadow="true"
     inkscape:pagecheckerboard="false"
     inkscape:window-width="1920"
     inkscape:window-height="1017"
     inkscape:window-x="1912"
     inkscape:window-y="-8"
     inkscape:window-maximized="1">
    <inkscape:grid
       empspacing="10"
       dotted="false"
       type="xygrid"
       id="grid5259" />
  </sodipodi:namedview>
  <metadata
     id="metadata4711">
    <rdf:RDF>
      <cc:Work
         rdf:about="">
        <dc:format>image/svg+xml</dc:format>
        <dc:type
           rdf:resource="http://purl.org/dc/dcmitype/StillImage" />
        <dc:title></dc:title>
      </cc:Work>
    </rdf:RDF>
  </metadata>
  <g
     inkscape:label="Layer 1"
     inkscape:groupmode="layer"
     id="layer1"
     transform="translate(0,-164.70832)">
    <rect
       style="fill:#000000;fill-opacity:0;stroke:none;stroke-width:52.26512527;stroke-linejoin:round;stroke-miterlimit:4;stroke-dasharray:none;stroke-opacity:1"
       id="rect5261"
       width="132.29166"
       height="132.29166"
       x="1.0658141e-014"
       y="164.70831"
       ry="0" />
    <flowRoot
       xml:space="preserve"
       id="flowRoot5272"
       style="font-style:normal;font-variant:normal;font-weight:normal;font-stretch:normal;font-size:40px;line-height:1.25;font-family:Tahoma;-inkscape-font-specification:Tahoma;letter-spacing:0px;word-spacing:0px;fill:#ffffff;fill-opacity:0.94117647;stroke:none"
       transform="matrix(0.26458333,0,0,0.26458333,0,164.70832)"><flowRegion
         id="flowRegion5274"
         style="font-style:normal;font-variant:normal;font-weight:normal;font-stretch:normal;font-family:Tahoma;-inkscape-font-specification:Tahoma;fill:#ffffff;fill-opacity:0.94117647"><rect
           id="rect5276"
           width="500"
           height="500"
           x="0"
           y="0"
           style="font-style:normal;font-variant:normal;font-weight:normal;font-stretch:normal;font-family:Tahoma;-inkscape-font-specification:Tahoma;fill:#ffffff;fill-opacity:0.94117647" /></flowRegion><flowPara
         id="flowPara5278" /></flowRoot>    <g
       id="g6777">
      <path
         sodipodi:nodetypes="ccccccccscscccscssscsscccsscccccccccccc"
         inkscape:connector-curvature="0"
         id="path5286"
         d="m 3.9824119,289.92833 2.88075,2.97487 8.8412101,-9.17337 8.84123,-9.17336 12.55514,-9.78203 12.55516,-9.78203 9.30845,-9.68271 9.30848,-9.68272 7.38022,-10.7326 c 4.05911,-5.90293 7.46285,-10.79082 7.56387,-10.86197 0.10103,-0.0711 6.3226,-0.83188 13.82576,-1.69051 l 13.642108,-1.56115 v -2.88496 -2.88497 H 98.329812 c -7.61261,0 -8.93516,-1.00304 -8.89031,-1.13384 0.04,-0.11676 6.2563,-6.36703 17.959538,-15.01586 11.70327,-8.64881 21.30525,-15.75265 21.33777,-15.7863 0.0326,-0.0336 -0.55392,-0.68989 -1.30318,-1.45834 l -1.3623,-1.39717 -14.95342,9.28691 c -12.174268,7.5609 -16.721308,10.05871 -21.041958,13.8615 l -5.92812,5.21759 -6.63541,9.30711 -6.59376,9.21373 -11.94211,16.23584 c -10.15804,13.81031 -12.16081,13.48798 -12.28563,12.86273 -0.0716,-0.35879 -1.00583,-5.02503 -1.72956,-9.56097 -0.563513,-3.15508 -0.937558,-6.34593 -1.56315,-9.48988 h -2.8212 -2.8212 v 10.95605 10.95605 l -6.36734,9.39193 -15.28454,12.65317 -3.39361,4.20341 c 0,0 -4.6691001,4.51713 -5.2916701,5.29166 l -6.31699,6.34732 z"
         style="opacity:1;fill:#663300;fill-opacity:1;stroke:none;stroke-width:0;stroke-linejoin:round;stroke-miterlimit:4;stroke-dasharray:none;stroke-dashoffset:0;stroke-opacity:1" />
      <path
         inkscape:connector-curvature="0"
         id="path6773"
         d="m 101.45879,186.05365 c 9.66621,-18.6995 9.66621,-18.6995 9.66621,-18.6995 l 3.98511,1.55308 -7.26383,17.13946 z"
         style="fill:#663300;fill-opacity:1;stroke:none;stroke-width:0.18209863px;stroke-linecap:butt;stroke-linejoin:miter;stroke-opacity:1" />
    </g>
  </g>
</svg>
